<?xml version="1.0" encoding="utf-8"?>
<!-- Generator: Adobe Illustrator 19.2.1, SVG Export Plug-In . SVG Version: 6.00 Build 0)  -->
<svg version="1.1" xmlns="http://www.w3.org/2000/svg" xmlns:xlink="http://www.w3.org/1999/xlink" x="0px" y="0px"
	 viewBox="0 0 1400 980" style="enable-background:new 0 0 1400 980;" xml:space="preserve">
<style type="text/css">
	.st0{fill:#6ACEF6;}
	.st1{fill:#204650;}
	.st2{fill:#1A3B42;}
	.st3{fill:#1F4650;}
	.st4{fill:#FFFFFF;}
	.st5{fill:#C9D1CF;}
	.st6{fill:#EDEDEE;}
	.st7{fill:#E3B68B;}
	.st8{fill:#F7D0A2;}
	.st9{fill:#E0A97F;}
	.st10{fill:#141413;}
	.st11{fill:none;}
	.st12{fill:#D0DCDA;}
	.st13{fill:#E1F4FD;}
	.st14{fill:#101D23;}
	.st15{fill:#E55934;}
	.st16{fill:#812E10;}
	.st17{font-family:'BebasNeue';}
	.st18{font-size:71.2601px;}
	.st19{fill:#A3DDF8;}
</style>
<g id="layer">
	<rect x="0.3" class="st0" width="1400" height="980"/>
</g>
<g id="Layer_5">
	<g>
		<g>
			<g>
				<rect x="54.5" y="875.2" class="st1" width="1291" height="104.8"/>
				<rect x="54.5" y="875.2" class="st2" width="1291" height="61.8"/>
				<rect x="-0.3" y="854.4" class="st3" width="1400.5" height="60.4"/>
			</g>
		</g>
	</g>
</g>
<g id="Layer_10">
	<g>
		<g>
			<g>
				<path class="st4" d="M847,861.8c2-32.6,6.4-85.5,6.4-85.5c6.3,17.4,17.3,53.8,25.7,85.5h90.6c1.1-6.4-53.5-333.3-56.5-341.9
					c-2.9-8.6-150.9-63.7-150.9-63.7c-7.5,14.2-44.4,49.2-46.3,48.2L712,861.8H847z"/>
				<path class="st5" d="M1001.1,861.8c1.2-3.4,2.1-5.8,2.1-5.8l-4.8,5.8H1001.1z"/>
				<path class="st6" d="M852.5,697c-2.8,17.6-4.8,30.6-4.8,31.6c0,0.9-1.6,4.3-3.8,8.7v104.3c0.1,7.1,0.2,14,0.2,20.3h2.4
					c1.4-27.2,4.6-61.6,6.1-77.1V697z"/>
			</g>
			<g>
				<path class="st4" d="M450.2,861.8h93.1c8.1-30.2,18.2-63.3,24.1-79.7c0,0,3.9,47,6,79.7h144.8l-3.6-356.3
					c-1.9,1-62.8-35.9-62.2-42.2c0,0-141.9,53.7-144.8,62.3C504.7,534.2,449.4,857.2,450.2,861.8z"/>
				<path class="st6" d="M568.4,703.5v88.3c1.4,15,4.1,44.7,5.6,70h1.5V740.1C574,737.1,571.1,720.7,568.4,703.5z"/>
			</g>
			<g>
				<path class="st7" d="M774.4,337.8c1.6-35.6-52.3,40.4-62.4,40.4c-11.4,0-59.5-61-56.3-24.2c2.5,28.6,2.7,56.4,2.2,82.1h115.2
					C772.7,402.3,773.1,367.4,774.4,337.8z"/>
				<path class="st8" d="M657.9,436.1c-0.5,24.6-1.7,47.3-2.4,66.8h119.2c-0.8-20.4-1.4-43.3-1.7-66.8H657.9z"/>
				<g>
					<path class="st8" d="M635.9,187.2c-20.4,17.5-14.3,59.5-14.3,88.6v50.6c0,14.7-1.1,31.6,4.7,44c10.8,22.7,37.5,45.1,61.3,53.5
						c9.7,3.4,17.2-2.2,28-2.4l-0.9-240.9C691.2,180.3,652,173.4,635.9,187.2z"/>
					
						<ellipse transform="matrix(0.9831 -0.1831 0.1831 0.9831 -44.2825 117.5969)" class="st8" cx="614.7" cy="298.6" rx="16.3" ry="32"/>
					
						<ellipse transform="matrix(0.1849 -0.9828 0.9828 0.1849 370.3904 1043.7621)" class="st8" cx="814.4" cy="298.6" rx="32" ry="16.3"/>
					<path class="st8" d="M810.8,275.8c0-32.2,5.3-74.4-19-91.6c-15.4-10.9-55.3-3.6-75.6-3.6c-0.5,0-2.2,0-2.7,0l0.9,240.9
						c0.2,0,1.6,0,1.8,0c11.1,0,16.9,6.4,26.9,2.8c26.5-12.5,47.5-27.8,64.1-51.6c5.7-12.3,3.6-31.9,3.6-46.4V275.8z"/>
					<g>
						<g>
							<path class="st9" d="M709.5,297.7c-0.4,9-2.1,17.8-5.2,26.3c-1.5,4.1-3.3,8.1-5.5,11.9c-1.9,3.4-5.1,6.7-6.3,10.4
								c-2.1,6.2,4.5,10.4,9.3,12.6c6.5,3,13.6,3.4,20.5,1.7c3.1-0.8,1.8-5.6-1.3-4.8c-6.9,1.7-14.1,0.8-20.1-3.1
								c-5.1-3.3-2.8-6.1-0.3-9.9c1.9-2.9,3.5-5.9,5-9c5.5-11.3,8.4-23.6,9-36.1C714.6,294.5,709.6,294.5,709.5,297.7L709.5,297.7z"
								/>
						</g>
					</g>
					<path class="st4" d="M745.6,374.4c0,16.1-13,29.1-29.1,29.1c-16.1,0-29.1-13-29.1-29.1"/>
					<path class="st4" d="M731.6,287.3c0,0.4-0.1,0.8-0.1,1.2c0,13.4,10.8,24.2,24.2,24.2c13.4,0,24.2-10.8,24.2-24.2
						c0-0.4,0-0.8-0.1-1.2H731.6z"/>
					<circle class="st10" cx="755.8" cy="303.3" r="9.4"/>
					<path class="st4" d="M652.3,287.3c0,0.4-0.1,0.8-0.1,1.2c0,13.4,10.8,24.2,24.2,24.2c13.4,0,24.2-10.8,24.2-24.2
						c0-0.4,0-0.8-0.1-1.2H652.3z"/>
					<circle class="st10" cx="676.9" cy="302.9" r="9.4"/>
					<g>
						<path d="M644.2,267.9c14.6-11.4,31.6-19.5,49.6-23.5c1.3-0.3,2.9-0.4,3.7,0.6c0.5,0.7,0.4,1.7,0.3,2.5
							c-0.9,5.9-1.8,11.7-2.7,17.6c-0.1,0.5-0.2,1-0.6,1.3c-0.5,0.4-1.2,0.3-1.8,0.2c-15.9-2.6-32.3-2.1-47.9,1.6"/>
					</g>
					<g>
						<path d="M786,266.9c-15-10.8-32.3-18.3-50.5-21.7c-1.3-0.2-2.9-0.3-3.7,0.8c-0.5,0.7-0.3,1.7-0.2,2.5
							c1.1,5.8,2.2,11.7,3.4,17.5c0.1,0.5,0.2,1,0.6,1.3c0.5,0.4,1.2,0.3,1.8,0.1c15.8-3.2,32.2-3.3,48-0.2"/>
					</g>
				</g>
			</g>
			<path class="st11" d="M722.5,504.6c2.3,0.7,4.3,1.6,6.2,2.9c2.4-1.4,4.7-3,7-4.5L722.5,504.6z"/>
			<path class="st11" d="M694.6,503.3c1.8,1.5,3.7,3.1,5.5,4.5c1.2-0.8,2.4-1.5,3.8-2.1C701.1,505.1,697.9,504.3,694.6,503.3z"/>
			<path class="st6" d="M722.6,860.6V503.3c0,0-1.8,1.1-4.1,1.1c-1.8,0-4.1-1.1-4.1-1.1v357.4H722.6z"/>
			<g>
				<g>
					<path class="st4" d="M716.4,550.3c4.6,1,9.1-1.8,10.2-6.4c1-4.6-1.8-9.1-6.4-10.2c-4.6-1-9.1,1.8-10.2,6.4
						C708.9,544.7,711.8,549.3,716.4,550.3"/>
					<path class="st12" d="M716.4,540.9c0.9,0.2,1.7-0.4,1.9-1.2c0.2-0.9-0.3-1.7-1.2-1.9c-0.9-0.2-1.7,0.3-1.9,1.2
						C715,539.8,715.6,540.7,716.4,540.9"/>
					<path class="st12" d="M715.4,545.3c0.9,0.2,1.7-0.4,1.9-1.2c0.2-0.9-0.4-1.7-1.2-1.9c-0.9-0.2-1.7,0.3-1.9,1.2
						C714,544.2,714.6,545.1,715.4,545.3"/>
					<path class="st12" d="M720.6,541.8c0.9,0.2,1.7-0.4,1.9-1.2c0.2-0.9-0.3-1.7-1.2-1.9c-0.9-0.2-1.7,0.4-1.9,1.2
						C719.2,540.8,719.7,541.6,720.6,541.8"/>
					<path class="st12" d="M719.6,546.2c0.9,0.2,1.7-0.3,1.9-1.2c0.2-0.9-0.4-1.7-1.2-1.9c-0.9-0.2-1.7,0.4-1.9,1.2
						C718.2,545.2,718.7,546,719.6,546.2"/>
				</g>
				<g>
					<path class="st4" d="M716.4,641c4.6,1,9.1-1.8,10.2-6.4c1-4.6-1.8-9.1-6.4-10.1c-4.6-1-9.1,1.8-10.2,6.4
						C708.9,635.4,711.8,640,716.4,641"/>
					<path class="st12" d="M716.4,631.6c0.9,0.2,1.7-0.4,1.9-1.2c0.2-0.9-0.3-1.7-1.2-1.9c-0.9-0.2-1.7,0.3-1.9,1.2
						C715,630.5,715.6,631.4,716.4,631.6"/>
					<path class="st12" d="M715.4,636c0.9,0.2,1.7-0.3,1.9-1.2c0.2-0.9-0.4-1.7-1.2-1.9c-0.9-0.2-1.7,0.3-1.9,1.2
						C714,634.9,714.6,635.8,715.4,636"/>
					<path class="st12" d="M720.6,632.5c0.9,0.2,1.7-0.4,1.9-1.2c0.2-0.9-0.3-1.7-1.2-1.9c-0.9-0.2-1.7,0.4-1.9,1.2
						C719.2,631.4,719.7,632.3,720.6,632.5"/>
					<path class="st12" d="M719.6,636.9c0.9,0.2,1.7-0.4,1.9-1.2c0.2-0.9-0.4-1.7-1.2-1.9c-0.9-0.2-1.7,0.3-1.9,1.2
						C718.2,635.9,718.7,636.7,719.6,636.9"/>
				</g>
				<g>
					<path class="st4" d="M716.4,731.7c4.6,1,9.1-1.8,10.2-6.4c1-4.6-1.8-9.1-6.4-10.2c-4.6-1-9.1,1.8-10.2,6.4
						C708.9,726.1,711.8,730.7,716.4,731.7"/>
					<path class="st12" d="M716.4,722.2c0.9,0.2,1.7-0.4,1.9-1.2c0.2-0.9-0.3-1.7-1.2-1.9c-0.9-0.2-1.7,0.4-1.9,1.2
						C715,721.2,715.6,722,716.4,722.2"/>
					<path class="st12" d="M715.4,726.7c0.9,0.2,1.7-0.3,1.9-1.2c0.2-0.9-0.4-1.7-1.2-1.9c-0.9-0.2-1.7,0.3-1.9,1.2
						C714,725.6,714.6,726.5,715.4,726.7"/>
					<path class="st12" d="M720.6,723.2c0.9,0.2,1.7-0.3,1.9-1.2c0.2-0.9-0.3-1.7-1.2-1.9c-0.9-0.2-1.7,0.3-1.9,1.2
						C719.2,722.1,719.7,723,720.6,723.2"/>
					<path class="st12" d="M719.6,727.6c0.9,0.2,1.7-0.3,1.9-1.2c0.2-0.9-0.4-1.7-1.2-1.9c-0.9-0.2-1.7,0.3-1.9,1.2
						C718.2,726.5,718.7,727.4,719.6,727.6"/>
				</g>
				<g>
					<path class="st4" d="M716.4,822.4c4.6,1,9.1-1.8,10.2-6.4c1-4.6-1.8-9.1-6.4-10.2c-4.6-1-9.1,1.8-10.2,6.4
						C708.9,816.8,711.8,821.4,716.4,822.4"/>
					<path class="st12" d="M716.4,812.9c0.9,0.2,1.7-0.4,1.9-1.2c0.2-0.9-0.3-1.7-1.2-1.9c-0.9-0.2-1.7,0.3-1.9,1.2
						C715,811.9,715.6,812.7,716.4,812.9"/>
					<path class="st12" d="M715.4,817.3c0.9,0.2,1.7-0.3,1.9-1.2c0.2-0.9-0.4-1.7-1.2-1.9c-0.9-0.2-1.7,0.3-1.9,1.2
						C714,816.3,714.6,817.1,715.4,817.3"/>
					<path class="st12" d="M720.6,813.9c0.9,0.2,1.7-0.3,1.9-1.2c0.2-0.9-0.3-1.7-1.2-1.9c-0.9-0.2-1.7,0.3-1.9,1.2
						C719.2,812.8,719.7,813.7,720.6,813.9"/>
					<path class="st12" d="M719.6,818.3c0.9,0.2,1.7-0.4,1.9-1.2c0.2-0.9-0.4-1.7-1.2-1.9c-0.9-0.2-1.7,0.3-1.9,1.2
						C718.2,817.2,718.7,818.1,719.6,818.3"/>
				</g>
			</g>
			<g>
				<polygon class="st13" points="649.9,453.7 620.1,462.5 646.5,544.7 717.5,504 				"/>
				<polygon class="st13" points="780.6,450.7 811.8,460.7 797.5,544.7 718.3,504 				"/>
			</g>
		</g>
		<g>
			<path class="st14" d="M604.1,168.7c0,4,6.9,93.2,7.7,109.1c0.4,8.3,5.4,12.9,11.5,18.4c-1.1-9.6-0.4-16.2-1.1-24.9
				c-0.8-11.1,7.7-31.5,7.7-31.5l5.9-18l-1.4-10.8c0,0-4-20,20-29.2c10.7-4.1,44.8,10.7,56.3,10.7c26.3,0.1,30.8-12.3,57.1-11.8
				c2.4,0.1,4.7-0.1,7.1,0.1c11.3,1,18.5,7.8,19.6,19.2c0.4,4-0.4,12.1-0.4,12.1l8.1,33.8c0,0,6.4,19.7,5.7,30.1
				c-0.5,7.4,2,12.7,1.3,20.1c0.6,0.3,1.2,0.5,1.8,0.8c2.2-5,5.2-9.9,6.5-15.1c2.9-11.8,14.1-131.5-6.1-137.3
				C734.7,110.6,604.1,127.7,604.1,168.7z"/>
		</g>
	</g>
</g>
<g id="Layer_11">
	<g>
		<path class="st15" d="M953.1,817.3c0,6.2-4.4,11.2-9.9,11.2h-454c-5.4,0-9.9-5-9.9-11.2v-256c0-6.2,4.4-11.2,9.9-11.2h454
			c5.4,0,9.9,5,9.9,11.2V817.3z"/>
		<circle class="st16" cx="716.5" cy="692.5" r="28.7"/>
		<path class="st15" d="M990,845.5c0,6.5-3.3,11.8-7.3,11.8H448.5c-4,0-7.3-5.3-7.3-11.8l0,0c0-6.5,3.3-11.8,7.3-11.8h534.1
			C986.7,833.7,990,839,990,845.5L990,845.5z"/>
		<g>
			<g>
				<path class="st16" d="M596.5,837.2c0,8.8-1.8,15.9-3.9,15.9h-45.4c-2.2,0-3.9-7.1-3.9-15.9l0,0c0-8.8,1.8-15.9,3.9-15.9h45.4
					C594.8,821.3,596.5,828.4,596.5,837.2L596.5,837.2z"/>
				<path class="st16" d="M886.7,837.2c0,8.8-1.8,15.9-3.9,15.9h-45.4c-2.2,0-3.9-7.1-3.9-15.9l0,0c0-8.8,1.8-15.9,3.9-15.9h45.4
					C884.9,821.3,886.7,828.4,886.7,837.2L886.7,837.2z"/>
			</g>
		</g>
	</g>
</g>
<g id="Layer_8">
	<circle class="st4" cx="276.7" cy="724.3" r="88.8"/>
	<g>
		<path class="st0" d="M328.9,744.3l-84.8,4.2l-0.2-4.2l77.4-14.2c4.1-0.9,6.8-4.3,6.7-8.5l-1.3-25.7c-0.2-4.3-3.8-7.6-8.1-7.4
			l-77.3,3.8l-0.3-5.9c-0.3-5.2-4.7-9.2-9.9-9l-15.1,0.7c-3.3,0.2-5.9,3-5.7,6.3c0.2,3.3,3,5.9,6.3,5.7l12.5-0.6l3.1,62
			c0.3,5.2,4.7,9.2,9.9,9l87.4-4.3c3.3-0.2,5.9-3,5.7-6.3C335.1,746.7,332.2,744.1,328.9,744.3z M277.2,729.4l-14.7,2.7l-1.6-32.1
			l14.8-0.7L277.2,729.4z M282.6,699l14.8-0.7l1.3,27.3l-14.7,2.7L282.6,699z M319.4,721.7l-13.8,2.5l-1.3-26.4l13.9-0.7
			L319.4,721.7z M254,700.4l1.6,33l-12.1,2.2l-1.7-34.6L254,700.4z"/>
		
			<ellipse transform="matrix(0.9988 -4.939460e-002 4.939460e-002 0.9988 -37.8556 13.8211)" class="st0" cx="260.7" cy="772.8" rx="11.9" ry="11.9"/>
		
			<ellipse transform="matrix(0.9988 -4.938788e-002 4.938788e-002 0.9988 -37.6402 16.6503)" class="st0" cx="318.1" cy="770" rx="11.9" ry="11.9"/>
	</g>
</g>
<g id="Layer_2">
	<circle class="st4" cx="245" cy="473.8" r="108.1"/>
	<g>
		<path class="st0" d="M301.5,410.2h-6.9v-2c0-6.1-5-11.1-11.1-11.1h-0.2c-6.1,0-11.1,5-11.1,11.1v2h-61.5v-2
			c0-6.1-5-11.1-11.1-11.1h-0.2c-6.1,0-11.1,5-11.1,11.1v2h-6.9c-6.1,0-11.1,5-11.1,11.1v106.3c0,6.1,5,11.1,11.1,11.1h120.1
			c6.1,0,11.1-5,11.1-11.1V421.3C312.6,415.2,307.6,410.2,301.5,410.2z M276.7,408.1c0-3.7,3-6.7,6.7-6.7h0.2c3.7,0,6.7,3,6.7,6.7
			v19.8c0,3.7-3,6.7-6.7,6.7h-0.2c-3.7,0-6.7-3-6.7-6.7V408.1z M192.7,408.1c0-3.7,3-6.7,6.7-6.7h0.2c3.7,0,6.7,3,6.7,6.7v19.8
			c0,3.7-3,6.7-6.7,6.7h-0.2c-3.7,0-6.7-3-6.7-6.7V408.1z M301.5,529.9H181.4c-1.2,0-2.2-1-2.2-2.2v-78.2h124.6v78.2
			C303.7,528.9,302.7,529.9,301.5,529.9z"/>
		<text transform="matrix(1 0 0 1 213.0024 514.9692)" class="st0 st17 st18">25</text>
	</g>
</g>
<g id="Layer_6">
	<circle class="st4" cx="325.5" cy="237.9" r="94.1"/>
	<path class="st0" d="M371.8,228.5h-10.1v-28.3h0c-0.2-19.9-16.3-36-36.3-36c-20,0-36.1,16.1-36.3,36h0v28.3h-10.1c-2.2,0-4,1.8-4,4
		V289c0,2.2,1.8,4,4,4h92.8c2.2,0,4-1.8,4-4v-56.5C375.9,230.3,374.1,228.5,371.8,228.5z M303.3,200.2c0,0,0,0.1,0,0.1
		c0.1-12.1,10-22,22.2-22c12.1,0,22.1,9.9,22.2,22c0,0,0-0.1,0-0.1v28.3h-44.4V200.2z M334.7,274.3h-18.6l6-17.4
		c-3.8-1.4-6.5-5-6.5-9.2c0-5.4,4.4-9.8,9.8-9.8c5.4,0,9.8,4.4,9.8,9.8c0,4.3-2.7,7.9-6.5,9.2L334.7,274.3z"/>
</g>
<g id="Layer_9">
	<circle class="st4" cx="480.3" cy="95.9" r="75.8"/>
	<path class="st0" d="M499.5,41.1l-76.5,45c-4.9,2.9-6.5,9.2-3.6,14l4,6.9l8.7,14.7l15,25.5c2.9,4.9,9.2,6.5,14,3.6l76.5-45
		c4.9-2.9,6.5-9.2,3.6-14l-15-25.5l-8.6-14.7l-4-6.9C510.7,39.9,504.4,38.2,499.5,41.1z M536.8,94.4c1.4,2.4,0.6,5.6-1.8,7l-76.5,45
		c-2.4,1.4-5.6,0.6-7-1.8l-15-25.5l85.3-50.2L536.8,94.4z M427.9,104.3l-4-6.9c-1.4-2.4-0.6-5.6,1.8-7l76.5-45
		c2.4-1.4,5.6-0.6,7,1.8l4,6.9L427.9,104.3z"/>
</g>
<g id="Layer_7">
	<g>
		<path class="st4" d="M748.6,99c-6.9,0-13.5-2.1-19.2-6c-3.5,1.2-7.2,1.8-10.9,1.8c-4,0-8-0.7-11.8-2.1c-5.3,3.6-11.4,5.5-17.8,5.5
			c-17.6,0-31.8-14.3-31.8-31.8c0-17.6,14.3-31.8,31.8-31.8c0.5,0,1,0,1.6,0c2.8-15,16.2-26.2,31.6-26.2c14.6,0,27.2,9.7,31,23.7
			c16.7,2.2,29.1,16.4,29.1,33.3C782.2,83.9,767.1,99,748.6,99z"/>
	</g>
</g>
<g id="Layer_12">
	<circle class="st4" cx="950.9" cy="82.3" r="62.2"/>
	<path class="st0" d="M986.3,55.5l-5.5-7.7c-1.8-2.3-4.1-3.4-7-3.6h-8.2c-2.9,0.1-5.2,1.3-7,3.6l-5.3,7.5h-31.2
		c-7.4,0-13.4,6-13.4,13.4v32.2c0,7.4,6,13.4,13.4,13.4h61.6c7.4,0,13.4-6,13.4-13.4V68.6C997.1,62.1,992.4,56.7,986.3,55.5z
		 M964.1,51.6c0,0,0.3-0.3,0.7-0.5c0.4-0.2,0.8-0.3,0.8-0.3h8.2c0,0,0.4,0.1,0.8,0.3c0.4,0.2,0.7,0.5,0.7,0.5l2.6,3.6h-16.3
		L964.1,51.6z M950.2,103.3c-10.5,0-19.1-8.6-19.1-19.1c0-10.5,8.6-19.1,19.1-19.1c10.5,0,19.1,8.6,19.1,19.1
		C969.3,94.8,960.7,103.3,950.2,103.3z M916.7,100.7V68.6c0-2.9,2.5-5.4,5.4-5.4h9c-5.7,5.2-9.3,12.7-9.3,21c0,8.8,4,16.7,10.3,21.9
		h-9.9C919.2,106.1,916.7,103.7,916.7,100.7z M989.1,100.7c0,2.9-2.5,5.4-5.4,5.4h-15.3c6.3-5.2,10.2-13.1,10.2-21.9
		c0-8.3-3.6-15.8-9.3-21h14.4c2.9,0,5.4,2.5,5.4,5.4V100.7z"/>
</g>
<g id="Layer_13">
	<circle class="st4" cx="1127" cy="211.7" r="113.1"/>
	<g>
		<path class="st0" d="M1129.9,133.8c-43,0-77.9,34.9-77.9,77.9c0,43,34.9,77.9,77.9,77.9c43,0,77.9-34.9,77.9-77.9
			C1207.8,168.7,1172.9,133.8,1129.9,133.8z M1129.9,272.5c-33.5,0-60.8-27.3-60.8-60.8c0-33.5,27.3-60.8,60.8-60.8
			c33.5,0,60.8,27.3,60.8,60.8C1190.8,245.2,1163.5,272.5,1129.9,272.5z"/>
		<path class="st0" d="M1167.5,209.8h-34v-39.9c0-3.4-2.7-6.1-6.1-6.1c-3.4,0-6.1,2.7-6.1,6.1v51.2c0,3.4,2.7,6.1,6.1,6.1
			c0.8,0,1.5-0.2,2.2-0.4c0.2,0,0.4,0.1,0.6,0.1h37.3c4.7,0,8.5-3.8,8.5-8.5C1176,213.6,1172.2,209.8,1167.5,209.8z"/>
	</g>
</g>
<g id="Layer_14">
	<circle class="st4" cx="1198.2" cy="437.5" r="108.1"/>
	<g>
		<path class="st0" d="M1133.2,386.2v94.6h130.1v-94.6H1133.2z M1239.6,400l-41.4,29.8l-41.4-29.8H1239.6z M1250.3,467.9h-104.2
			v-60.8l52.1,39.7l52.1-39.7V467.9z"/>
	</g>
</g>
<g id="Layer_15">
	<circle class="st4" cx="1224.6" cy="637.7" r="70.6"/>
	<g>
		<path class="st0" d="M1266,633.4c0,4.6-0.7,8.9-2.2,12.7c-1.5,3.8-3.5,6.8-6.1,9c-2.6,2.1-5.7,3.2-9.2,3.2c-2.6,0-4.8-0.7-6.7-2
			c-1.9-1.4-3.1-3.2-3.8-5.5h-0.6c-1.6,2.5-3.5,4.4-5.9,5.7c-2.3,1.3-5,1.9-7.9,1.9c-5.3,0-9.4-1.7-12.5-5.1c-3-3.4-4.5-8-4.5-13.8
			c0-6.7,2-12.1,6-16.3s9.4-6.2,16.2-6.2c2.5,0,5.2,0.2,8.2,0.7c3,0.4,5.7,1,8,1.8L1244,642v1.2c0,5.2,1.7,7.8,5.1,7.8
			c2.6,0,4.6-1.7,6.1-5c1.5-3.3,2.3-7.5,2.3-12.6c0-5.5-1.1-10.4-3.4-14.6c-2.3-4.2-5.5-7.4-9.7-9.7c-4.2-2.3-9-3.4-14.4-3.4
			c-6.9,0-12.9,1.4-18,4.3c-5.1,2.9-9,6.9-11.7,12.2c-2.7,5.3-4,11.4-4,18.4c0,9.4,2.5,16.6,7.5,21.7s12.2,7.6,21.6,7.6
			c7.2,0,14.6-1.5,22.4-4.4v8c-6.8,2.8-14.2,4.2-22.2,4.2c-12,0-21.3-3.2-28-9.7c-6.7-6.5-10.1-15.5-10.1-27c0-8.5,1.8-16,5.4-22.6
			c3.6-6.6,8.7-11.6,15.1-15.1c6.4-3.5,13.7-5.2,21.8-5.2c7,0,13.3,1.5,18.8,4.4c5.5,2.9,9.8,7.1,12.8,12.5
			C1264.5,620.1,1266,626.4,1266,633.4z M1216,639.6c0,7.5,3,11.3,8.9,11.3c6.3,0,9.7-4.7,10.3-14.2l0.6-11.6
			c-2-0.6-4.2-0.8-6.6-0.8c-4.1,0-7.4,1.4-9.7,4.1C1217.2,631.1,1216,634.9,1216,639.6z"/>
	</g>
</g>
<g id="Layer_16">
	<circle class="st4" cx="1175.7" cy="781.9" r="59.2"/>
	<g>
		<path class="st0" d="M1198,794.2c0,4.5-1.7,8.3-5,11.2c-3.3,2.9-8.1,4.7-14.3,5.4V821h-6.2v-9.9c-7.7-0.1-14.1-1.3-19.1-3.6v-9.9
			c2.7,1.3,5.8,2.4,9.4,3.3c3.6,0.9,6.8,1.3,9.6,1.4v-17.5l-3.9-1.5c-5.1-2-8.9-4.3-11.2-7c-2.4-2.7-3.5-6.1-3.5-10.1
			c0-4.3,1.7-7.9,5-10.6c3.4-2.8,7.9-4.5,13.7-5.1v-7.9h6.2v7.7c6.3,0.2,12.4,1.5,18,3.8l-3.4,8.6c-4.9-1.9-9.8-3.1-14.6-3.5v17
			l3.6,1.4c5.9,2.3,10,4.7,12.3,7.2C1196.9,787.4,1198,790.5,1198,794.2z M1164.8,766.1c0,1.8,0.6,3.3,1.7,4.5
			c1.1,1.2,3.1,2.4,6,3.5v-14.6c-2.5,0.4-4.4,1.1-5.7,2.3C1165.4,762.9,1164.8,764.3,1164.8,766.1z M1186.9,794.9
			c0-1.8-0.6-3.3-1.9-4.5c-1.3-1.2-3.4-2.3-6.3-3.4v14.9C1184.2,801.1,1186.9,798.7,1186.9,794.9z"/>
	</g>
</g>
<g id="Layer_17">
	<g>
		<g>
			<rect x="423.2" y="431.9" class="st19" width="109.2" height="4"/>
		</g>
		<g>
			<rect x="416.4" y="413.6" class="st19" width="71.4" height="4"/>
		</g>
		<g>
			<rect x="416.4" y="397" class="st19" width="14.8" height="4"/>
		</g>
		<g>
			<rect x="1049.8" y="625.7" class="st19" width="71.4" height="1.9"/>
		</g>
		<g>
			<rect x="1049.8" y="645.8" class="st19" width="14.8" height="4"/>
		</g>
		<g>
			<rect x="103.7" y="270.5" class="st19" width="71.4" height="1.9"/>
		</g>
		<g>
			<rect x="103.7" y="290.6" class="st19" width="14.8" height="4"/>
		</g>
		<g>
			<rect x="1294" y="120.5" class="st19" width="71.4" height="4"/>
		</g>
		<g>
			<rect x="1294" y="103.8" class="st19" width="14.8" height="4"/>
		</g>
		<g>
			<path class="st19" d="M885,232.3h67.5c1.1,0,2,0.9,2,2v0c0,1.1-0.9,2-2,2H885c-1.1,0-2-0.9-2-2v0
				C883,233.2,883.9,232.3,885,232.3z"/>
		</g>
		<g>
			<path class="st19" d="M903.4,247.7H933c1.1,0,2,0.9,2,2l0,0c0,1.1-0.9,2-2,2h-29.6c-1.1,0-2-0.9-2-2l0,0
				C901.4,248.6,902.3,247.7,903.4,247.7z"/>
		</g>
		<g>
			<rect x="910.6" y="407.2" class="st19" width="109.2" height="4"/>
		</g>
		<g>
			<rect x="875.5" y="389" class="st19" width="71.4" height="4"/>
		</g>
		<g>
			<rect x="483.1" y="322.6" class="st19" width="59.2" height="4"/>
		</g>
		<g>
			<rect x="508.3" y="295.7" class="st19" width="59.2" height="4"/>
		</g>
		<g>
			<rect x="1019.3" y="800.8" class="st19" width="40.2" height="4"/>
		</g>
		<g>
			<rect x="1010.3" y="784.2" class="st19" width="33.3" height="4"/>
		</g>
		<g>
			<rect x="1095.9" y="61.3" class="st19" width="109.2" height="4"/>
		</g>
		<g>
			<rect x="1087.2" y="43.1" class="st19" width="71.4" height="4"/>
		</g>
		<g>
			<rect x="232.3" y="61.3" class="st19" width="109.2" height="4"/>
		</g>
		<g>
			<rect x="223.6" y="43.1" class="st19" width="71.4" height="4"/>
		</g>
		<g>
			<rect x="100.8" y="626.9" class="st19" width="109.2" height="4"/>
		</g>
		<g>
			<rect x="92.1" y="608.7" class="st19" width="71.4" height="4"/>
		</g>
		<g>
			<rect x="1306.4" y="559" class="st19" width="59.2" height="4"/>
		</g>
		<g>
			<rect x="20.1" y="414.8" class="st19" width="59.2" height="4"/>
		</g>
		<g>
			<rect x="82.9" y="782.8" class="st19" width="59.2" height="4"/>
		</g>
		<g>
			<rect x="377" y="548.2" class="st19" width="59.2" height="4"/>
		</g>
		<g>
			<rect x="1302.8" y="268.6" class="st19" width="53.8" height="4"/>
		</g>
		<g>
			<rect x="1276.1" y="268.6" class="st19" width="11.4" height="4"/>
		</g>
		<g>
			<rect x="1289.3" y="238" class="st19" width="53.8" height="4"/>
		</g>
		<g>
			<rect x="85.7" y="92.4" class="st19" width="53.8" height="4"/>
		</g>
		<g>
			<rect x="58.9" y="92.4" class="st19" width="11.4" height="4"/>
		</g>
		<g>
			<rect x="72.1" y="61.9" class="st19" width="53.8" height="4"/>
		</g>
	</g>
</g>
</svg>
